<svg width="2613" height="216" viewBox="0 0 2613 216" xmlns="http://www.w3.org/2000/svg">
    <path d="M671.024.165c1.982.668 19.425 7.868 19.976 55.942-.339 6.086-3.75 16.367-13.754 19.765A9.401 9.401 0 0 1 677 76c-2 1-4 3-4 5 0 2.74.77 7.6 20.544 8.75.149-.018.3-.034.456-.05.379.027.75.05 1.114.07a520.2 520.2 0 0 1 9.178-.444C712.425 87.79 713 83.386 713 83c0-2-1-3-4-5.2a2.106 2.106 0 0 1-.352-.312 9.182 9.182 0 0 1-.393-.367c-3.398-3.361-3.262-8.399-3.252-8.613.306-26.076 9.16-38.264 9.538-38.77.337-.45.875-.723 1.456-.738.512-.002 1.02.19 1.376.548l.114.126c.42.507 10.204 12.714 10.513 38.874-.189 3.263-2.051 8.726-7.464 10.707C719 80.169 719 81.085 719 82c-.655 4.588 4.49 6.921 15.435 6.998L736 89c42 0 186 26 292 64-104-44-175.548-50.315-169-52 32.265-8.303 116.35-36.012 123-41 8-6 26 0 26 0s48-9 51-9 50 15 69 15 61-15 91-15 98 9 299 72c-69-27-125.522-40-121-40 14 0 120.775-19.093 167 0 46 19 159 20 150 25s-20.56 5.696-20 6c1.583.86 59-4 99-17l3.008-.976c-.007-.007-.008-.015-.008-.024 9.246-3.467 14.484-7.507 15.716-12.12-2.26-.304-4.138-1.19-5.603-2.646-3.25-3.23-3.12-8.07-3.11-8.275.292-25.054 8.762-36.764 9.123-37.25a1.79 1.79 0 0 1 1.393-.709c.544-.002 1.083.227 1.425.647.4.488 9.76 12.216 10.056 37.35-.196 3.398-2.273 9.282-8.519 10.692 1.08 2.897 3.609 4.112 7.587 3.644 20.98-5.859 28.346-5.235 47.932-2.333 38 6 152 49 189 49 3.858 0-103.203 20.709-176.508 26.507l-1.549.119 3.703-.192C2094.91 149.197 2096.05 114 2173 114c64.018 0 142.403 33.106 215.901 50.938 2.102-.242 3.473-1.305 4.114-3.188-5.146-1.162-6.854-6.105-7.015-8.957.242-21.03 7.9-30.844 8.228-31.251l.099-.112a1.5 1.5 0 0 1 1.066-.43c.455.012.876.231 1.14.593.296.407 7.225 10.205 7.464 31.168.009.172.115 4.222-2.544 6.924-1.204 1.223-2.749 1.966-4.608 2.216.51 2.147 2.123 4.141 4.836 5.984 15.088 3.292 29.918 5.806 44.319 7.115 88 8 67 25 131 35 24.667 3.333 36.333 5.333 35 6H0c161-7 161-58 280-63 99.534 0 156.61-15.67 187.038-25.806 7.068-2.934 10.667-6.033 10.797-9.296-2.015-.238-3.692-.904-5.005-1.987-2.955-2.438-2.836-6.093-2.827-6.248.265-18.919 7.965-27.76 8.294-28.128.293-.326.76-.524 1.266-.535.44-.002.875.135 1.185.388l.11.1c.365.369 8.874 9.225 9.142 28.204-.18 2.586-2.096 7.079-7.88 8.098 1.382 1.99 4.143 2.513 8.284 1.568.528-.136 1.06-.256 1.596-.358 70.716-13.26 119.846-20.694 155.06-24.85A.226.226 0 0 1 647 94c15.006-1.876 22.975-12.547 14.008-18.816-8.663-3.927-11.693-13.31-12.008-18.857.538-48.3 17.98-55.498 19.968-56.162a3.286 3.286 0 0 1 2.056 0zm1211.919 160.461l-2.943.154c-8.954.452-18.28.86-28 1.22 8.84 0 18.99-.473 29.949-1.297l.994-.077z" fill="#F9F8F4" fill-rule="evenodd"/>
</svg>