<svg width="2062" height="103" viewBox="0 0 2062 103" xmlns="http://www.w3.org/2000/svg">
    <path d="M738.098 61.8c47.602-7.69 98.826-21.973 153.671-42.848-80.716 36.256-136.245 41.46-131.163 42.848 25.04 6.842 90.3 29.674 95.462 33.784 6.209 4.944 20.179 0 20.179 0S913.5 103 915.829 103c2.328 0 38.806-12.36 53.552-12.36 14.746 0 47.343 12.36 70.627 12.36 23.283 0 76.059-7.416 232.059-59.328-53.553 22.248-97.42 32.96-93.91 32.96 10.865 0 38.048-14.477 129.61 0 42.687 6.749 123.403-16.48 116.418-20.6-6.985-4.12-15.956-4.693-15.522-4.944 1.229-.709 45.791 3.296 76.836 14.008 37.425 12.914 40.358 13.184 61.313 9.888C1576.304 70.04 1977.867 29 2060 29c2 0 2-9.667 0-29H0v29c27.147 0 632.546 42.688 665.143 42.688 21.731 0 46.05-3.296 72.955-9.888z" fill="#F9F8F4" fill-rule="evenodd"/>
</svg>